<?xml version="1.0" standalone="no"?><!DOCTYPE svg PUBLIC "-//W3C//DTD SVG 1.1//EN" "http://www.w3.org/Graphics/SVG/1.1/DTD/svg11.dtd"><svg t="1582257542646" class="icon" viewBox="0 0 1024 1024" version="1.1" xmlns="http://www.w3.org/2000/svg" p-id="2775" xmlns:xlink="http://www.w3.org/1999/xlink" width="200" height="200"><defs><style type="text/css"></style></defs><path d="M512.268258 128.040955c211.176348 0 383.956997 172.780649 383.956997 383.956997 0 211.178396-172.780649 383.959045-383.956997 383.959045s-383.956997-172.780649-383.956997-383.959045c0-211.176348 172.780649-383.956997 383.956997-383.956997m0-63.992832c-249.572048 0-447.94983 204.777065-447.94983 447.949829 0 243.174812 198.377782 447.951877 447.94983 447.951878s447.94983-198.377782 447.94983-447.951878c0-249.572048-198.377782-447.94983-447.94983-447.949829z m108.787816 646.354232l-191.978499-198.465836 191.978499-198.385973-57.59355-57.593549-255.971331 255.979522 255.971331 256.059385 57.59355-57.593549z" fill="" p-id="2776"></path></svg>