<?xml version="1.0" encoding="UTF-8"?>
<svg width="151px" height="98px" viewBox="0 0 151 98" version="1.1" xmlns="http://www.w3.org/2000/svg" xmlns:xlink="http://www.w3.org/1999/xlink">
	<!-- Generator: Sketch 61.2 (89653) - https://sketch.com -->
	<title>
		Planet
	</title>
	<desc>
		Created with Sketch.
	</desc>
	<g id="视觉设计" stroke="none" stroke-width="1" fill="none" fill-rule="evenodd">
		<g id="任务详情-父任务-无数据" transform="translate(-299.000000, -569.000000)">
			<g id="Planet" transform="translate(299.000000, 569.000000)">
				<g id="Group-58" transform="translate(13.413793, 0.000000)">
					<path d="M121.87286,38.1380702 L121.87286,37.3622082 C122.020164,37.3622082 122.167375,37.3429052 122.312978,37.3033556 C123.214858,37.06246 123.750306,36.134907 123.508331,35.232152 C122.663015,32.0765295 119.63777,29.748751 114.400785,28.3489969 C113.788267,28.1865414 113.143628,28.035572 112.466853,27.8960926 C111.552331,27.7064452 110.660313,28.2972044 110.472853,29.2149948 C110.285882,30.1312384 110.876057,31.0244772 111.791958,31.2115513 C112.383978,31.3329279 112.963328,31.468817 113.527888,31.6180711 C117.31958,32.6309474 119.721126,34.1660075 120.241191,36.1079842 C120.440108,36.8520515 121.114244,37.3622082 121.87286,37.3622082 L121.87286,38.1380702 Z" id="Fill-2" fill="#CCCFD7" fill-rule="nonzero">
					</path>
					<path d="M4.33341178,67.1633888 C4.25812613,66.8802493 4.22099336,66.594643 4.22099959,66.2934798 C4.21769183,65.4681935 4.5054753,64.5081912 5.09156812,63.4644431 C6.16581133,61.5229582 8.37042001,59.2124775 11.3659798,56.9182969 C15.9876791,53.3582882 22.6498606,49.6186448 30.5950171,46.1401805 C38.8092654,42.5412066 48.2624639,39.2632978 58.2584206,36.5842409 C58.4236556,36.5408215 58.5801547,36.4992653 58.7517707,36.4532523 C59.6532939,36.2113802 60.1886678,35.2832418 59.9465761,34.3800522 C59.7057769,33.478534 58.7773193,32.9427142 57.8717977,33.1856483 C57.7896224,33.2073157 57.7896224,33.2073157 57.7084837,33.2289541 C57.6679619,33.2397967 57.6679619,33.2397967 57.6274081,33.250689 C57.5053618,33.2835711 57.5053618,33.2835711 57.3783508,33.3178967 C41.9332029,37.4595788 27.9088212,42.9595627 17.5655037,48.8378763 C12.4410075,51.7544183 8.4193075,54.6405507 5.56137137,57.4759168 C4.07228855,58.9575666 2.94286176,60.3810141 2.14141262,61.8072045 C1.28570788,63.3347233 0.839703117,64.8257506 0.837570389,66.2903701 C0.837570389,66.8865574 0.913563557,67.4747389 1.06527636,68.0401148 C1.30716284,68.9425374 2.23530885,69.4784391 3.13777376,69.2373874 C4.04024198,68.9954887 4.57576253,68.0675495 4.33381254,67.16489 L5.0832205,66.9640177 L4.33341178,67.1633888 Z" id="Fill-4" fill="#CCCFD7" fill-rule="nonzero">
					</path>
					<path d="M62.2773806,94.7479279 C53.5954961,94.7479279 45.116795,92.1234723 37.9220792,87.1984043 C29.4454672,81.3938417 23.3096838,72.7251579 20.648299,62.7931783 C14.4972166,39.8369259 28.173885,16.1483555 51.130219,9.99725121 C61.0636634,7.33691236 71.6384723,8.31675567 80.9020092,12.7557228 C92.2754501,18.2047164 100.665799,28.307709 103.926122,40.4789009 C110.077459,63.4361039 96.4012062,87.1241727 73.4443278,93.2751189 C69.7943822,94.2536867 66.0419814,94.7479279 62.2773806,94.7479279 Z M62.2773806,98.1358589 L62.2773806,97.7479279 C66.2969967,97.7479279 70.3108348,97.2211727 74.220746,96.1729068 C98.778194,89.5931123 113.404024,64.2599111 106.823955,39.7026521 C103.336897,26.6850307 94.3612323,15.8774787 82.1984146,10.0502962 C72.288759,5.30171734 60.9788131,4.25391124 50.353765,7.09947288 C25.7970362,13.6793998 11.1706135,39.0129771 17.7505302,63.5696678 C20.5971938,74.1930863 27.1594684,83.4644139 36.2274726,89.6739463 C43.9353981,94.9503268 53.0077844,97.7479279 62.2773806,97.7479279 L62.2773806,98.1358589 Z" id="Fill-22" fill="#CCCFD7" fill-rule="nonzero">
					</path>
					<path d="M65.6811116,91.6117997 C55.0624001,93.1652936 44.8050703,90.4810561 36.6114798,84.8477937 C36.3898779,84.6966491 36.1682759,84.5330038 35.9478104,84.3693585 L35.9375826,84.3568578 C35.1659532,83.8193284 34.4090973,83.2499791 33.6795154,82.6374457 C33.4090474,82.4112969 33.1374429,82.1851482 32.8681113,81.9476352 C25.7711664,75.7450236 20.7618257,67.0763681 19.3015256,57.0292282 C16.0411357,34.6643698 31.5305446,13.8995988 53.8827958,10.6494212 C61.9979733,9.46526559 69.9017767,10.7505631 76.8396227,13.9359644 C78.4999328,14.7041882 80.101149,15.579236 81.6455442,16.5497436 C82.9774288,17.3929715 84.2649931,18.3112035 85.4855085,19.313531 C88.2242815,21.523879 90.6812222,24.0785641 92.7597349,26.9207648 C96.6190183,32.1471868 99.2634684,38.3622991 100.262382,45.2319927 C103.522772,67.5968511 88.0333628,88.3616221 65.6811116,91.6117997" id="Fill-6" fill="#F9FAFB">
					</path>
					<path d="M34.6662196,44.4165644 L34.6662196,43.6407023 C35.3768113,43.6407023 36.0207891,43.1927283 36.2614308,42.5114638 C39.35182,33.7466886 46.5477176,27.1608997 55.5090877,24.8970684 C56.4151453,24.6688636 56.9638556,23.7490285 56.7352501,22.842227 C56.5070494,21.9370308 55.5860112,21.387759 54.6807208,21.6170427 C44.6181829,24.1588535 36.5407587,31.5479037 33.0710965,41.3850337 C32.7604091,42.267149 33.2227222,43.2338988 34.1020577,43.5436088 C34.2875051,43.6085154 34.477003,43.6407023 34.6662196,43.6407023 L34.6662196,44.4165644 Z" id="Fill-12" fill="#CCCFD7" fill-rule="nonzero">
					</path>
					<path d="M33.3155932,58.323192 L33.3155932,57.54733 C33.3970365,57.54733 33.4800587,57.5413387 33.5622474,57.5296021 C34.4872839,57.3941896 35.1273147,56.535497 34.9919601,55.6108549 C34.8480956,54.6229005 34.7570242,53.6214338 34.7216006,52.634618 C34.6872269,51.7090442 33.8831007,50.9663443 32.9673807,51.0061379 C32.0338652,51.0399609 31.305282,51.8245085 31.3408491,52.7594691 C31.380202,53.8601579 31.4826491,54.9843481 31.6441493,56.0990655 C31.7656149,56.9325708 32.4823699,57.54733 33.3155932,57.54733 L33.3155932,58.323192 Z" id="Fill-14" fill="#CCCFD7" fill-rule="nonzero">
					</path>
					<path d="M24.3850743,77.1372066 L24.3850743,76.3613445 C36.533943,76.3613445 52.0777394,74.0048182 67.1953157,69.9548148 C100.551471,61.0174638 126.369394,45.9093203 123.508016,35.231807 C123.266942,34.3284128 122.338483,33.791807 121.436975,34.0353649 C120.534507,34.2772636 119.998986,35.2052028 120.240987,36.108053 C122.297985,43.7900515 98.5613408,58.0473836 66.3199511,66.6863161 C34.078249,75.3253324 6.39319652,74.8460923 4.33307227,67.1642731 C4.09060917,66.2596992 3.16333392,65.7232136 2.26180865,65.9682343 C1.35934043,66.210133 0.823819881,67.1380721 1.06580174,68.0408506 C2.52662155,73.4942923 10.8904964,76.3613445 24.3850743,76.3613445 L24.3850743,77.1372066 Z" id="Fill-24" fill="#CCCFD7" fill-rule="nonzero">
					</path>
					<path d="M116.573992,9.68719393 L118.073992,9.68719393 C118.073992,14.604003 114.087622,18.5899146 109.171272,18.5899146 C104.254075,18.5899146 100.268551,14.6043904 100.268551,9.68719393 C100.268551,4.76999742 104.254075,0.784473268 109.171272,0.784473268 C114.087622,0.784473268 118.073992,4.77038485 118.073992,9.68719393 L116.573992,9.68719393 Z M116.573992,9.68719393 L115.073992,9.68719393 C115.073992,6.42731641 112.430845,3.78447327 109.171272,3.78447327 C105.910929,3.78447327 103.268551,6.42685167 103.268551,9.68719393 C103.268551,12.9475362 105.910929,15.5899146 109.171272,15.5899146 C112.430845,15.5899146 115.073992,12.9470714 115.073992,9.68719393 L116.573992,9.68719393 Z" id="Fill-26" fill="#CCCFD7" fill-rule="nonzero">
					</path>
					<path d="M109.171148,4.44384688 L109.171148,3.66798481 C112.490408,3.66798481 115.190604,6.36818148 115.190604,9.68744068 C115.190604,13.0066999 112.490408,15.7068966 109.171148,15.7068966 C105.851889,15.7068966 103.151693,13.0066999 103.151693,9.68744068 C103.151693,6.36818148 105.851889,3.66798481 109.171148,3.66798481 L109.171148,4.44384688 Z" id="Fill-32" fill="#FFFFFF" fill-rule="nonzero">
					</path>
				</g>
				<path d="M145.321165,69.23873 C145.321165,70.0386712 144.672033,70.6878034 143.872091,70.6878034 C143.07215,70.6878034 142.423018,70.0386712 142.423018,69.23873 L142.423018,65.6315096 L138.815798,65.6315096 C138.015856,65.6315096 137.366724,64.9823774 137.366724,64.1824362 C137.366724,63.382495 138.015856,62.7333627 138.815798,62.7333627 L142.423018,62.7333627 L142.423018,59.1261424 C142.423018,58.3262012 143.07215,57.677069 143.872091,57.677069 C144.672033,57.677069 145.321165,58.3262012 145.321165,59.1261424 L145.321165,62.7333627 L148.928385,62.7333627 C149.728326,62.7333627 150.377459,63.382495 150.377459,64.1824362 C150.377459,64.9823774 149.728326,65.6315096 148.928385,65.6315096 L145.321165,65.6315096 L145.321165,69.23873 Z" id="合并形状" fill="#CCCFD7" fill-rule="nonzero">
				</path>
				<path d="M8.76944067,35.1007989 C8.76944067,35.9007402 8.12030845,36.5498724 7.32036722,36.5498724 C6.520426,36.5498724 5.87129378,35.9007402 5.87129378,35.1007989 L5.87129378,31.4935786 L2.26407344,31.4935786 C1.46413222,31.4935786 0.815,30.8444464 0.815,30.0445052 C0.815,29.2445639 1.46413222,28.5954317 2.26407344,28.5954317 L5.87129378,28.5954317 L5.87129378,24.9882114 C5.87129378,24.1882702 6.520426,23.5391379 7.32036722,23.5391379 C8.12030845,23.5391379 8.76944067,24.1882702 8.76944067,24.9882114 L8.76944067,28.5954317 L12.376661,28.5954317 C13.1766022,28.5954317 13.8257344,29.2445639 13.8257344,30.0445052 C13.8257344,30.8444464 13.1766022,31.4935786 12.376661,31.4935786 L8.76944067,31.4935786 L8.76944067,35.1007989 Z" id="合并形状" fill="#CCCFD7" fill-rule="nonzero">
				</path>
			</g>
		</g>
	</g>
</svg>
