<?xml version="1.0" encoding="UTF-8"?>
<svg width="46px" height="46px" viewBox="0 0 46 46" version="1.1" xmlns="http://www.w3.org/2000/svg" xmlns:xlink="http://www.w3.org/1999/xlink">
	<!-- Generator: Sketch 61.2 (89653) - https://sketch.com -->
	<title>
		形状结合
	</title>
	<desc>
		Created with Sketch.
	</desc>
	<g id="Symbols" stroke="none" stroke-width="1" fill="none" fill-rule="evenodd">
		<g id="底部菜单2" transform="translate(-165.000000, -12.000000)">
			<g id="编组-3备份-3">
				<g id="编组-2">
					<rect id="Background" fill="#FFFFFF" x="0" y="1" width="750" height="98">
					</rect>
					<path d="M203.170213,12 C207.494485,12 211,15.581722 211,20 L211,50 C211,54.418278 207.494485,58 203.170213,58 L172.829787,58 C168.505515,58 165,54.418278 165,50 L165,20 C165,15.581722 168.505515,12 172.829787,12 L203.170213,12 Z M203.170213,16 L172.829787,16 C170.667651,16 168.914894,17.790861 168.914894,20 L168.914894,50 C168.914894,52.209139 170.667651,54 172.829787,54 L203.170213,54 C205.332349,54 207.085106,52.209139 207.085106,50 L207.085106,20 C207.085106,17.790861 205.332349,16 203.170213,16 Z M198,42 C199.104569,42 200,42.8954305 200,44 C200,45.1045695 199.104569,46 198,46 L178,46 C176.895431,46 176,45.1045695 176,44 C176,42.8954305 176.895431,42 178,42 L198,42 Z M198,33 C199.104569,33 200,33.8954305 200,35 C200,36.1045695 199.104569,37 198,37 L178,37 C176.895431,37 176,36.1045695 176,35 C176,33.8954305 176.895431,33 178,33 L198,33 Z M198,24 C199.104569,24 200,24.8954305 200,26 C200,27.1045695 199.104569,28 198,28 L178,28 C176.895431,28 176,27.1045695 176,26 C176,24.8954305 176.895431,24 178,24 L198,24 Z" id="形状结合" fill="#7F8389" fill-rule="nonzero">
					</path>
				</g>
			</g>
		</g>
	</g>
</svg>
