<?xml version="1.0" encoding="UTF-8"?>
<svg width="45px" height="45px" viewBox="0 0 45 45" version="1.1" xmlns="http://www.w3.org/2000/svg" xmlns:xlink="http://www.w3.org/1999/xlink">
    <!-- Generator: Sketch 61.2 (89653) - https://sketch.com -->
    <title>编组</title>
    <desc>Created with Sketch.</desc>
    <g id="Symbols" stroke="none" stroke-width="1" fill="none" fill-rule="evenodd">
        <g id="底部菜单" transform="translate(-540.000000, -15.000000)">
            <g id="编组-3备份-4">
                <g id="编组-3备份-2">
                    <g id="编组-2">
                        <rect id="Background" fill="#FFFFFF" x="0" y="1" width="750" height="98"></rect>
                        <g id="编组" transform="translate(536.000000, 12.000000)" fill="#7F8389" fill-rule="nonzero">
                            <path d="M37.8609334,3.70996094 C40.7210806,3.70996094 43.1836042,5.72880313 43.7444493,8.53342334 L43.7444493,8.53342334 L47.7842682,28.7319529 C48.5417946,29.6083594 49,30.7506699 49,32 L49,43 C49,45.7614237 46.7614237,48 44,48 L9,48 C6.23857625,48 4,45.7614237 4,43 L4,32 C4,30.7362324 4.46885683,29.5819721 5.24211395,28.7016757 L8.3812632,8.77641766 C8.84076833,5.8590867 11.3548957,3.70996094 14.308193,3.70996094 L14.308193,3.70996094 Z M16.3330078,31 L9,31 C8.44771525,31 8,31.4477153 8,32 L8,43 C8,43.5522847 8.44771525,44 9,44 L44,44 C44.5522847,44 45,43.5522847 45,43 L45,32 C45,31.4477153 44.5522847,31 44,31 L36.8071289,31 C36.5309865,31 36.3071289,31.2238576 36.3071289,31.5 L36.3071289,33 C36.3071289,34.6568542 34.9639832,36 33.3071289,36 L19.8330078,36 C18.1761536,36 16.8330078,34.6568542 16.8330078,33 L16.8330078,31.5 C16.8330078,31.2238576 16.6091502,31 16.3330078,31 Z M37.8609334,7.70996094 L14.308193,7.70996094 C13.3237606,7.70996094 12.4857181,8.42633619 12.3325497,9.39877985 L12.3325497,9.39877985 L9.559,26.9999609 L16.3330078,27 C18.8182892,27 20.8330078,29.0147186 20.8330078,31.5 L20.8330078,32 L32.3071289,32 L32.3071289,31.5 C32.3071289,29.0147186 34.3218475,27 36.8071289,27 L43.358,26.9999609 L39.8221054,9.31778174 C39.6455431,8.43484575 38.9035639,7.78554128 38.0185173,7.71612146 L37.8609334,7.70996094 Z M34,19 C35.1045695,19 36,19.8954305 36,21 C36,22.1045695 35.1045695,23 34,23 L18,23 C16.8954305,23 16,22.1045695 16,21 C16,19.8954305 16.8954305,19 18,19 L34,19 Z M30,12 C31.1045695,12 32,12.8954305 32,14 C32,15.1045695 31.1045695,16 30,16 L22,16 C20.8954305,16 20,15.1045695 20,14 C20,12.8954305 20.8954305,12 22,12 L30,12 Z" id="形状结合"></path>
                        </g>
                    </g>
                </g>
            </g>
        </g>
    </g>
</svg>